# Blender v2.82 (sub 7) OBJ File: ''
# www.blender.org
v -0.756561 0.756561 1.000000
v -0.756561 1.000000 0.756561
v -1.000000 0.756561 0.756561
v -0.756561 -1.000000 0.756561
v -0.756561 -0.756561 1.000000
v -1.000000 -0.756561 0.756561
v -1.000000 0.756561 -0.756561
v -0.756561 1.000000 -0.756561
v -0.756561 0.756561 -1.000000
v -1.000000 -0.756561 -0.756561
v -0.756561 -0.756561 -1.000000
v -0.756561 -1.000000 -0.756561
v 0.756561 0.756561 1.000000
v 1.000000 0.756561 0.756561
v 0.756561 1.000000 0.756561
v 1.000000 -0.756561 0.756561
v 0.756561 -0.756561 1.000000
v 0.756561 -1.000000 0.756561
v 1.000000 0.756561 -0.756561
v 0.756561 0.756561 -1.000000
v 0.756561 1.000000 -0.756561
v 0.756561 -1.000000 -0.756561
v 0.756561 -0.756561 -1.000000
v 1.000000 -0.756561 -0.756561
vt 0.344570 0.530430
vt 0.155430 0.719570
vt 0.155430 0.530430
vt 0.594570 0.030430
vt 0.405430 0.219570
vt 0.405430 0.030430
vt 0.344570 0.719570
vt 0.594570 0.780430
vt 0.405430 0.969570
vt 0.405430 0.780430
vt 0.844570 0.530430
vt 0.655430 0.719570
vt 0.655430 0.530430
vt 0.594570 0.530430
vt 0.405430 0.719570
vt 0.405430 0.530430
vt 0.594570 0.469570
vt 0.625000 0.469570
vt 0.594570 0.500000
vt 0.344570 0.500000
vt 0.375000 0.530430
vt 0.594570 0.719570
vt 0.625000 0.719570
vt 0.594570 0.750000
vt 0.405430 0.750000
vt 0.375000 0.719570
vt 0.594570 0.280430
vt 0.594570 0.250000
vt 0.625000 0.280430
vt 0.405430 0.250000
vt 0.375000 0.219570
vt 0.594570 0.000000
vt 0.625000 0.030430
vt 0.155430 0.750000
vt 0.125000 0.719570
vt 0.125000 0.530430
vt 0.594570 0.969570
vt 0.405430 1.000000
vt 0.405430 0.280430
vt 0.594570 0.219570
vt 0.844570 0.719570
vt 0.655430 0.750000
vt 0.875000 0.719570
vt 0.844570 0.500000
vt 0.405430 0.469570
vt 0.155430 0.500000
vt 0.594570 1.000000
vt 0.844570 0.750000
vt 0.344570 0.750000
vt 0.875000 0.530430
vt 0.655430 0.500000
vn 0.0000 -1.0000 0.0000
vn 1.0000 0.0000 0.0000
vn 0.0000 0.0000 -1.0000
vn 0.0000 1.0000 0.0000
vn -1.0000 0.0000 0.0000
vn -0.5774 0.5774 0.5774
vn -0.5774 -0.5774 0.5774
vn -0.5774 0.5774 -0.5774
vn -0.5774 -0.5774 -0.5774
vn 0.5774 0.5774 0.5774
vn 0.5774 -0.5774 0.5774
vn 0.5774 0.5774 -0.5774
vn 0.5774 -0.5774 -0.5774
vn 0.7071 -0.7071 0.0000
vn 0.0000 -0.7071 0.7071
vn -0.7071 0.0000 0.7071
vn 0.7071 0.0000 -0.7071
vn -0.7071 0.0000 -0.7071
vn 0.7071 0.0000 0.7071
vn 0.0000 0.7071 -0.7071
vn -0.7071 0.7071 0.0000
vn 0.0000 -0.7071 -0.7071
vn 0.7071 0.7071 0.0000
vn 0.0000 0.7071 0.7071
vn -0.7071 -0.7071 0.0000
vn 0.0000 0.0000 1.0000
s off
f 4/1/1 22/2/1 18/3/1
f 19/4/2 16/5/2 24/6/2
f 4/1/1 12/7/1 22/2/1
f 9/8/3 23/9/3 11/10/3
f 15/11/4 8/12/4 2/13/4
f 3/14/5 10/15/5 6/16/5
f 1/17/6 2/18/6 3/19/6
f 4/1/7 5/20/7 6/21/7
f 7/22/8 8/23/8 9/24/8
f 10/15/9 11/25/9 12/26/9
f 13/27/10 14/28/10 15/29/10
f 16/5/11 17/30/11 18/31/11
f 19/4/12 20/32/12 21/33/12
f 22/2/13 23/34/13 24/35/13
f 22/2/14 16/36/14 18/3/14
f 18/3/15 5/20/15 4/1/15
f 6/16/16 1/17/16 3/14/16
f 20/37/17 24/38/17 23/9/17
f 11/10/18 7/22/18 9/8/18
f 17/39/19 14/40/19 13/27/19
f 21/41/20 9/42/20 8/12/20
f 8/12/21 3/14/21 2/13/21
f 12/7/22 23/34/22 22/2/22
f 15/11/23 19/43/23 21/41/23
f 2/13/24 13/44/24 15/11/24
f 4/1/25 10/15/25 12/7/25
f 13/27/26 5/45/26 17/39/26
f 19/4/2 14/40/2 16/5/2
f 9/8/3 20/37/3 23/9/3
f 15/11/4 21/41/4 8/12/4
f 3/14/5 7/22/5 10/15/5
f 22/2/14 24/35/14 16/36/14
f 18/3/15 17/46/15 5/20/15
f 6/16/16 5/45/16 1/17/16
f 20/37/17 19/47/17 24/38/17
f 11/10/18 10/15/18 7/22/18
f 17/39/19 16/5/19 14/40/19
f 21/41/20 20/48/20 9/42/20
f 8/12/21 7/22/21 3/14/21
f 12/7/22 11/49/22 23/34/22
f 15/11/23 14/50/23 19/43/23
f 2/13/24 1/51/24 13/44/24
f 4/1/25 6/16/25 10/15/25
f 13/27/26 1/17/26 5/45/26
